<svg xmlns="http://www.w3.org/2000/svg" viewBox="0 0 36.22 36.22"><g data-name="Layer 2"><g data-name="Layer 1"><circle cx="18.11" cy="18.11" r="18.11" fill="#293686"/><path d="M23 11h-9.8a2.21 2.21 0 00-2.2 2.21V23a2.22 2.22 0 002.22 2.23H23A2.23 2.23 0 0025.24 23v-9.8A2.22 2.22 0 0023 11zm-1.85 2a.4.4 0 01.4-.4h1.72a.4.4 0 01.4.4v1.72a.4.4 0 01-.4.4h-1.71a.4.4 0 01-.4-.4zm-5.68 4.13a2.83 2.83 0 015.26 0 2.94 2.94 0 01.19 1 2.82 2.82 0 01-5.64 0 2.94 2.94 0 01.2-1.05zM23.73 23a.73.73 0 01-.72.72h-9.8a.72.72 0 01-.71-.72v-5.92h1.4a4.4 4.4 0 00-.12 1 4.33 4.33 0 008.66 0 4.4 4.4 0 00-.12-1h1.41z" fill="#fff" fill-rule="evenodd"/></g></g></svg>