<svg xmlns="http://www.w3.org/2000/svg" viewBox="0 0 36.22 36.22"><g data-name="Layer 2"><g data-name="Layer 1"><circle cx="18.11" cy="18.11" r="18.11" fill="#293686"/><path d="M15 21.83a3.31 3.31 0 01-3.06-2.28 3.19 3.19 0 001.41-.05 3.3 3.3 0 01-2.62-3.25 3.21 3.21 0 001.47.4 3.35 3.35 0 01-1.36-2 3.3 3.3 0 01.36-2.38 9.38 9.38 0 006.8 3.42v-.36a3.27 3.27 0 012.7-3.63 3.19 3.19 0 012.88.92.17.17 0 00.17.05 6.64 6.64 0 001.91-.74 3.43 3.43 0 01-1.41 1.79 6.14 6.14 0 001.83-.5l-.38.49a5.8 5.8 0 01-1.19 1.13.1.1 0 00-.05.11 10.2 10.2 0 01-.07 1.46 9.59 9.59 0 01-.84 2.92 9.41 9.41 0 01-1.78 2.59 8.78 8.78 0 01-4.51 2.51 10.17 10.17 0 01-1.83.22 9.35 9.35 0 01-5.25-1.41h-.08a6.59 6.59 0 004.9-1.41z" fill="#fff" fill-rule="evenodd"/></g></g></svg>