<svg xmlns="http://www.w3.org/2000/svg" viewBox="0 0 36.22 36.22"><defs><style>.cls-2{fill:#fff}</style></defs><g id="Layer_2" data-name="Layer 2"><g id="Layer_1-2" data-name="Layer 1"><circle cx="18.11" cy="18.11" r="18.11" fill="#293686"/><path class="cls-2" d="M16.74 10.19h-.9l-.61 2.33-.63-2.33h-.93c.18.55.38 1.1.56 1.65a13.94 13.94 0 01.55 1.88v2.4h.89v-2.4zm2.37 4.5v-1.55a1.71 1.71 0 00-.25-1 1.19 1.19 0 00-1.86 0 1.64 1.64 0 00-.26 1v1.55a1.64 1.64 0 00.26 1 1.17 1.17 0 001.86 0 1.71 1.71 0 00.25-1zm-.8.15c0 .41-.12.62-.38.62s-.38-.21-.38-.62V13c0-.41.12-.61.38-.61s.38.2.38.61zm3.77 1.28V11.7h-.8v3.38c-.18.25-.35.38-.51.38s-.17-.07-.19-.19a1.88 1.88 0 010-.31V11.7h-.8v3.5a2.47 2.47 0 00.07.66.5.5 0 00.52.33 1.3 1.3 0 00.92-.55v.48zm-2.52 4.46a.55.55 0 00-.39.19v2.67a.53.53 0 00.39.2c.23 0 .35-.2.35-.59v-1.87c0-.39-.12-.6-.35-.6zm2.95 0c-.27 0-.4.21-.4.61v.4h.79v-.4c0-.4-.13-.61-.39-.61z"/><path class="cls-2" d="M24.45 18.36A1.65 1.65 0 0023 17.07a44.86 44.86 0 00-4.92-.18 44.68 44.68 0 00-4.91.18 1.65 1.65 0 00-1.42 1.29 14 14 0 00-.23 3.1 14 14 0 00.23 3.1 1.66 1.66 0 001.42 1.29 44.59 44.59 0 004.91.18 44.86 44.86 0 004.92-.18 1.66 1.66 0 001.41-1.29 14 14 0 00.23-3.1 14.57 14.57 0 00-.19-3.1zm-9.16.89h-.95v5.05h-.88v-5.05h-.93v-.83h2.76zm2.4 5.05h-.79v-.48a1.3 1.3 0 01-.91.54.48.48 0 01-.51-.33 2 2 0 01-.07-.65v-3.46h.79v3.22a1.73 1.73 0 000 .31c0 .13.08.19.18.19s.33-.12.51-.37v-3.35h.79zm3-1.31a3.22 3.22 0 01-.08.88.63.63 0 01-.63.49 1.08 1.08 0 01-.82-.49v.43h-.79v-5.88h.79v1.92a1.09 1.09 0 01.82-.47.62.62 0 01.63.49 3.13 3.13 0 01.08.88zm3-.73h-1.58V23c0 .41.13.61.41.61s.3-.11.35-.32a4.07 4.07 0 000-.54h.81v.12a4.89 4.89 0 010 .51 1.18 1.18 0 01-.19.48 1.11 1.11 0 01-1 .47 1.14 1.14 0 01-1-.45 1.75 1.75 0 01-.25-1v-1.53a1.76 1.76 0 01.24-1 1.14 1.14 0 011-.45 1.1 1.1 0 01.93.45 1.68 1.68 0 01.25 1z"/></g></g></svg>